<svg xmlns="http://www.w3.org/2000/svg" width="20" height="22" fill="none"><path fill="#000" fill-rule="evenodd" d="M19.75 17.75h-4.751a2.75 2.75 0 0 1-2.75-2.75v-2a2.75 2.75 0 0 1 2.75-2.75h4.751V9c0-.729-.29-1.429-.805-1.945A2.755 2.755 0 0 0 17 6.25H3c-.729 0-1.429.29-1.945.805A2.755 2.755 0 0 0 .25 9v10c0 .729.29 1.429.805 1.945A2.755 2.755 0 0 0 3 21.75h14c.729 0 1.429-.29 1.945-.805A2.755 2.755 0 0 0 19.75 19v-1.25Zm0-6v4.5h-4.751c-.69 0-1.25-.56-1.25-1.25v-2c0-.69.56-1.25 1.25-1.25h4.751ZM15.5 13a1 1 0 1 1 0 2 1 1 0 0 1 0-2Zm-1.412-7.75H17c.191 0 .381.015.568.043l.474-1.018a.75.75 0 0 0-.362-.996L11.335.32a.75.75 0 0 0-.996.363l-.537 1.151 3.3 1.538a1.75 1.75 0 0 1 .986 1.878Zm-10.413 0h9.379a.75.75 0 0 0-.374-.971L6.335 1.32a.75.75 0 0 0-.996.363L3.675 5.25Z" clip-rule="evenodd"/></svg>