<svg xmlns="http://www.w3.org/2000/svg" width="24" height="24" fill="none"><g fill="#000" clip-path="url(#a)"><path d="M19.5.75h-15A3.754 3.754 0 0 0 .75 4.5v15a3.754 3.754 0 0 0 3.75 3.75h15a3.754 3.754 0 0 0 3.75-3.75v-15A3.754 3.754 0 0 0 19.5.75Zm2.25 3.75v6.75h-9v-9h6.75c1.24 0 2.25 1.01 2.25 2.25ZM4.5 2.25h6.75v9h-9V4.5c0-1.24 1.01-2.25 2.25-2.25ZM2.25 19.5v-6.75h9v9H4.5c-1.24 0-2.25-1.01-2.25-2.25Zm17.25 2.25h-6.75v-9h9v6.75c0 1.24-1.01 2.25-2.25 2.25Z"/><path d="M4.5 7.5H6V9a.75.75 0 0 0 1.5 0V7.5H9A.75.75 0 0 0 9 6H7.5V4.5a.75.75 0 0 0-1.5 0V6H4.5a.75.75 0 0 0 0 1.5Zm10.5 0h4.5a.75.75 0 1 0 0-1.5H15a.75.75 0 1 0 0 1.5ZM19.5 18H15a.75.75 0 1 0 0 1.5h4.5a.75.75 0 1 0 0-1.5Zm0-3H15a.75.75 0 1 0 0 1.5h4.5a.75.75 0 1 0 0-1.5ZM7.81 17.25l1.061-1.06a.75.75 0 1 0-1.06-1.061l-1.061 1.06-1.06-1.06a.75.75 0 0 0-1.061 1.06l1.06 1.061-1.06 1.061a.75.75 0 1 0 1.06 1.06l1.061-1.06 1.06 1.06a.747.747 0 0 0 1.224-.242.75.75 0 0 0-.163-.818l-1.06-1.061Z"/></g><defs><clipPath id="a"><path fill="#fff" d="M0 0h24v24H0z"/></clipPath></defs></svg>