<svg width="10" height="7" viewBox="0 0 10 7" fill="none" xmlns="http://www.w3.org/2000/svg">
<path d="M9 6.50002C8.86839 6.50078 8.73793 6.47555 8.61609 6.42579C8.49426 6.37602 8.38344 6.3027 8.29 6.21002L5 2.90002L1.7 6.08002C1.51264 6.26627 1.25919 6.37081 0.995 6.37081C0.730814 6.37081 0.477362 6.26627 0.29 6.08002C0.196272 5.98705 0.121877 5.87645 0.0711088 5.75459C0.0203401 5.63273 -0.00579834 5.50203 -0.00579834 5.37002C-0.00579834 5.23801 0.0203401 5.1073 0.0711088 4.98544C0.121877 4.86358 0.196272 4.75298 0.29 4.66002L4.29 0.800017C4.47693 0.61679 4.72825 0.51416 4.99 0.51416C5.25175 0.51416 5.50307 0.61679 5.69 0.800017L9.69 4.80002C9.78373 4.89298 9.85812 5.00358 9.90889 5.12544C9.95966 5.2473 9.9858 5.37801 9.9858 5.51002C9.9858 5.64203 9.95966 5.77273 9.90889 5.89459C9.85812 6.01645 9.78373 6.12705 9.69 6.22002C9.50462 6.3987 9.25747 6.49899 9 6.50002Z" fill="black"/>
</svg>
