<svg xmlns="http://www.w3.org/2000/svg" width="20" height="19" fill="none"><path fill="#000" d="M6.666 5.714c3.816 0 6.667-1.508 6.667-2.857C13.333 1.508 10.482 0 6.666 0 2.851 0 0 1.508 0 2.857c0 1.349 2.85 2.857 6.666 2.857Zm0 11.428c.557 0 1.093-.032 1.603-.091a7.627 7.627 0 0 1-1.051-1.824c-.183.006-.367.01-.552.01-2.18 0-4.245-.431-5.813-1.216A7.534 7.534 0 0 1 0 13.525v.76c0 1.349 2.85 2.857 6.666 2.857Zm0-3.81h.059a7.672 7.672 0 0 1 0-1.905l-.059.001c-2.18 0-4.244-.432-5.813-1.216A7.563 7.563 0 0 1 0 9.716v.76c0 1.348 2.85 2.857 6.666 2.857Zm0-3.809c.19 0 .376-.004.56-.01a7.63 7.63 0 0 1 1.192-1.99 16.01 16.01 0 0 1-1.752.096c-2.18 0-4.244-.432-5.813-1.217A7.553 7.553 0 0 1 0 5.907v.76c0 1.348 2.85 2.856 6.666 2.856Zm2.858-.3a5.684 5.684 0 0 0-.895 3.972 5.67 5.67 0 0 0 .594 1.836c.31.589.72 1.12 1.212 1.568a5.693 5.693 0 0 0 3.85 1.495A5.721 5.721 0 0 0 20 12.38a5.721 5.721 0 0 0-6.671-5.635 5.726 5.726 0 0 0-3.805 2.478Z"/></svg>