<svg xmlns="http://www.w3.org/2000/svg" width="24" height="24" fill="none"><g clip-path="url(#a)"><path fill="#039" fill-rule="evenodd" d="M12.009 23.99c6.621 0 11.99-5.368 11.99-11.99S18.63.01 12.01.01C5.387.01.018 5.377.018 12s5.369 11.99 11.99 11.99Z" clip-rule="evenodd"/><path fill="#FC0" d="m12.009 2.674-.3.919h-.966l.78.566-.294.926.78-.566.778.566-.292-.926.78-.566h-.966l-.3-.92Zm.3 16.907-.3-.92-.3.92h-.966l.78.566-.294.926.78-.567.778.567-.293-.926.78-.566h-.965Zm-8.294-7.066.779.562-.293-.926.78-.566h-.967l-.3-.919-.3.919H2.75l.78.566-.294.926.78-.562ZM8.01 3.746l-.3.92h-.965l.78.572-.294.92.779-.575.779.573-.293-.92.78-.572h-.964l-.302-.918ZM5.087 6.671l-.3.919h-.965l.779.566-.3.926.786-.566.78.566-.3-.926.786-.566h-.966l-.3-.92Zm.3 8.913-.3-.92-.3.92h-.965l.779.566-.3.926.786-.566.78.566-.3-.926.786-.566h-.966ZM8.31 18.51l-.301-.922-.298.922h-.967l.78.573-.293.916.778-.573.779.573-.293-.919.781-.57h-.966Zm12.957-6.924h-.966l-.3-.92-.299.92h-.967l.78.566-.293.924.78-.562.78.562-.294-.926.78-.564Zm-5.262-7.841-.3.92h-.966l.78.572-.294.92.78-.575.779.573-.293-.92.78-.572h-.967l-.3-.918Zm2.445 4.41-.3.926.78-.566.785.566-.3-.926.78-.566h-.966l-.3-.92-.3.92h-.965l.786.566Zm.778 7.428-.3-.92-.3.92h-.965l.786.566-.3.926.78-.566.786.566-.3-.926.78-.566h-.967Zm-2.924 2.927-.3-.92-.3.92h-.965l.78.573-.294.919.78-.573.779.573-.293-.92.78-.572h-.967Z"/></g><defs><clipPath id="a"><path fill="#fff" d="M0 0h24v24H0z"/></clipPath></defs></svg>