<svg xmlns="http://www.w3.org/2000/svg" width="18" height="20" fill="none"><path fill="#000" d="M2.538.078A2.538 2.538 0 0 0 0 2.616V9.54a1.154 1.154 0 0 0 1.154 1.154h3.23a.702.702 0 0 0 .693-.692V2.616A2.538 2.538 0 0 0 2.538.078Zm1.154 9.23H1.385V2.616a1.145 1.145 0 0 1 .793-1.09.923.923 0 0 1 .36-.064 1.154 1.154 0 0 1 1.154 1.154v6.692Z"/><path fill="#000" d="M12.692.078H2.538a.702.702 0 0 0-.6.341.71.71 0 0 0 0 .693l.24.415a.923.923 0 0 1 .36-.065 1.154 1.154 0 0 1 1.154 1.154v15.49a1.625 1.625 0 0 0 2.391 1.42l.268-.156a2.04 2.04 0 0 1 1.264-.388c.453-.016.899.12 1.265.388a3.508 3.508 0 0 0 1.975.572c.7.012 1.386-.19 1.966-.581a2.261 2.261 0 0 1 2.52 0l.268.157a1.615 1.615 0 0 0 1.597 0A1.598 1.598 0 0 0 18 18.133V5.385A5.317 5.317 0 0 0 12.692.078ZM11.308 13H7.615a.692.692 0 0 1 0-1.385h3.693a.692.692 0 0 1 0 1.385Zm2.769-3.231H7.615a.692.692 0 1 1 0-1.385h6.462a.693.693 0 0 1 0 1.385Zm0-3.23H7.615a.692.692 0 0 1 0-1.385h6.462a.693.693 0 0 1 0 1.384Z"/></svg>