<svg width="100" height="18" viewBox="0 0 100 18" fill="none" xmlns="http://www.w3.org/2000/svg">
<path fill-rule="evenodd" clip-rule="evenodd" d="M29.3301 1.42002C28.9568 1.75336 28.7701 2.18003 28.7701 2.70003C28.7701 3.20669 28.9568 3.63336 29.3301 3.98003C29.7035 4.31336 30.1968 4.48003 30.8101 4.48003C31.4235 4.48003 31.9168 4.31336 32.2901 3.98003C32.6635 3.63336 32.8501 3.20669 32.8501 2.70003C32.8501 2.18003 32.6635 1.75336 32.2901 1.42002C31.9168 1.07336 31.4235 0.900024 30.8101 0.900024C30.1968 0.900024 29.7035 1.07336 29.3301 1.42002ZM32.5101 17V5.84002H29.0901V17H32.5101ZM44.9914 6.99997C44.2447 6.14664 43.2314 5.71997 41.9514 5.71997C41.0981 5.71997 40.3514 5.9133 39.7114 6.29997C39.0847 6.68664 38.6114 7.2133 38.2914 7.87997V5.83997H34.8714V17H38.2914V11.08C38.2914 10.2666 38.4914 9.63997 38.8914 9.19997C39.3047 8.75997 39.8581 8.53997 40.5514 8.53997C41.2047 8.53997 41.7247 8.7533 42.1114 9.17997C42.5114 9.5933 42.7114 10.1733 42.7114 10.92V17H46.1314V10.52C46.1314 9.02664 45.7514 7.8533 44.9914 6.99997ZM21.5368 5.70007C22.6434 5.70007 23.6301 5.93341 24.4968 6.40007C25.3768 6.85341 26.0634 7.51341 26.5568 8.38007C27.0634 9.24674 27.3168 10.2601 27.3168 11.4201C27.3168 12.5801 27.0634 13.5934 26.5568 14.4601C26.0634 15.3267 25.3768 15.9934 24.4968 16.4601C23.6301 16.9134 22.6434 17.1401 21.5368 17.1401C20.4301 17.1401 19.4368 16.9134 18.5568 16.4601C17.6768 15.9934 16.9834 15.3267 16.4768 14.4601C15.9834 13.5934 15.7368 12.5801 15.7368 11.4201C15.7368 10.2601 15.9834 9.24674 16.4768 8.38007C16.9834 7.51341 17.6768 6.85341 18.5568 6.40007C19.4368 5.93341 20.4301 5.70007 21.5368 5.70007ZM21.5368 8.66007C20.8834 8.66007 20.3301 8.90007 19.8768 9.38007C19.4368 9.84674 19.2168 10.5267 19.2168 11.4201C19.2168 12.3134 19.4368 12.9934 19.8768 13.4601C20.3301 13.9267 20.8834 14.1601 21.5368 14.1601C22.1901 14.1601 22.7368 13.9267 23.1768 13.4601C23.6168 12.9934 23.8368 12.3134 23.8368 11.4201C23.8368 10.5267 23.6168 9.84674 23.1768 9.38007C22.7368 8.90007 22.1901 8.66007 21.5368 8.66007ZM12.1 4.13997C10.9267 3.1933 9.44001 2.71997 7.64001 2.71997C6.26668 2.71997 5.06001 3.02664 4.02001 3.63997C2.98001 4.23997 2.17334 5.08664 1.60001 6.17997C1.04001 7.2733 0.76001 8.51997 0.76001 9.91997C0.76001 11.32 1.04001 12.5666 1.60001 13.66C2.17334 14.7533 2.98001 15.6066 4.02001 16.22C5.06001 16.82 6.26668 17.12 7.64001 17.12C9.44001 17.12 10.9267 16.6466 12.1 15.7C13.2867 14.74 14.0533 13.46 14.4 11.86H10.78C10.5133 12.5 10.1 13.0066 9.54001 13.38C8.99334 13.7533 8.34001 13.94 7.58001 13.94C6.58001 13.94 5.77334 13.58 5.16001 12.86C4.54668 12.1266 4.24001 11.1466 4.24001 9.91997C4.24001 8.6933 4.54668 7.7133 5.16001 6.97997C5.77334 6.24664 6.58001 5.87997 7.58001 5.87997C8.34001 5.87997 8.99334 6.06664 9.54001 6.43997C10.1 6.81331 10.5133 7.32664 10.78 7.97997H14.4C14.0533 6.36664 13.2867 5.08664 12.1 4.13997Z" fill="#606C76"/>
<path fill-rule="evenodd" clip-rule="evenodd" d="M65.08 17V2.95996H60.92L57.18 12.74L53.36 2.95996H49.18V17H52.6V8.19996L55.66 17H58.62L61.66 8.21996V17H65.08ZM72.6617 5.69995C73.7684 5.69995 74.755 5.93328 75.6217 6.39995C76.5017 6.85328 77.1884 7.51328 77.6817 8.37995C78.1884 9.24662 78.4417 10.26 78.4417 11.42C78.4417 12.58 78.1884 13.5933 77.6817 14.46C77.1884 15.3266 76.5017 15.9933 75.6217 16.46C74.755 16.9133 73.7684 17.14 72.6617 17.14C71.555 17.14 70.5617 16.9133 69.6817 16.46C68.8017 15.9933 68.1084 15.3266 67.6017 14.46C67.1084 13.5933 66.8617 12.58 66.8617 11.42C66.8617 10.26 67.1084 9.24662 67.6017 8.37995C68.1084 7.51328 68.8017 6.85328 69.6817 6.39995C70.5617 5.93328 71.555 5.69995 72.6617 5.69995ZM72.6617 8.65995C72.0084 8.65995 71.455 8.89995 71.0017 9.37995C70.5617 9.84662 70.3417 10.5266 70.3417 11.42C70.3417 12.3133 70.5617 12.9933 71.0017 13.46C71.455 13.9266 72.0084 14.16 72.6617 14.16C73.315 14.16 73.8617 13.9266 74.3017 13.46C74.7417 12.9933 74.9617 12.3133 74.9617 11.42C74.9617 10.5266 74.7417 9.84662 74.3017 9.37995C73.8617 8.89995 73.315 8.65995 72.6617 8.65995ZM99.4065 12.04C99.4732 11.7066 99.5065 11.4 99.5065 11.12C99.5065 10.0533 99.2732 9.11328 98.8065 8.29995C98.3532 7.47328 97.7065 6.83328 96.8665 6.37995C96.0265 5.92662 95.0532 5.69995 93.9465 5.69995C92.8532 5.69995 91.8799 5.93328 91.0265 6.39995C90.1732 6.85328 89.5065 7.51328 89.0265 8.37995C88.5599 9.23328 88.3265 10.2466 88.3265 11.42C88.3265 12.58 88.5665 13.5933 89.0465 14.46C89.5265 15.3266 90.1865 15.9933 91.0265 16.46C91.8799 16.9133 92.8532 17.14 93.9465 17.14C94.8799 17.14 95.7265 16.9666 96.4865 16.62C97.2465 16.26 97.8732 15.7733 98.3665 15.16C98.8599 14.5333 99.1799 13.8266 99.3265 13.04H95.7065C95.5999 13.4399 95.3799 13.7666 95.0465 14.02C94.7132 14.2733 94.2932 14.4 93.7865 14.4C93.1865 14.4 92.6932 14.22 92.3065 13.86C91.9199 13.4866 91.7065 12.88 91.6665 12.04H99.4065ZM95.4465 8.95995C95.8599 9.31995 96.0599 9.86662 96.0465 10.6H91.6865C91.7399 9.87995 91.9732 9.33328 92.3865 8.95995C92.7999 8.58662 93.3199 8.39995 93.9465 8.39995C94.5465 8.39995 95.0465 8.58662 95.4465 8.95995ZM85.2752 6.31997C84.6085 6.71997 84.0618 7.25997 83.6351 7.93997V5.83997H80.2151V17H83.6351V11.92C83.6351 11 83.8818 10.3466 84.3751 9.95997C84.8818 9.5733 85.5885 9.37997 86.4951 9.37997H87.4751V5.71997C86.6885 5.71997 85.9552 5.91997 85.2752 6.31997Z" fill="#9B4DCA"/>
</svg>
