<svg width="24" height="24" viewBox="0 0 24 24" fill="none" xmlns="http://www.w3.org/2000/svg">
<g clip-path="url(#clip0_6_4452)">
<path d="M12 24C18.6267 24 24 18.6267 24 12C24 5.37328 18.6267 0 12 0C5.37328 0 0 5.37328 0 12C0 18.6267 5.37328 24 12 24Z" fill="#F0F0F0"/>
<path d="M23.2533 16.1719C24.2489 13.4788 24.2489 10.5184 23.2533 7.82532H0.746724C-0.248908 10.5184 -0.248908 13.4788 0.746724 16.1719L12 17.2205L23.2533 16.1719Z" fill="#0052B4"/>
<path d="M12 24C17.16 24 21.5597 20.7469 23.2533 16.1719H0.746704C2.44217 20.7469 6.83999 24 12 24Z" fill="#D80027"/>
</g>
<defs>
<clipPath id="clip0_6_4452">
<rect width="24" height="24" fill="white"/>
</clipPath>
</defs>
</svg>
