<svg xmlns="http://www.w3.org/2000/svg" width="24" height="24" fill="none"><g clip-path="url(#a)"><path fill="#F0F0F0" d="M12 24c6.627 0 12-5.373 12-12S18.627 0 12 0 0 5.373 0 12s5.373 12 12 12Z"/><path fill="#0052B4" d="M23.253 16.172a12.036 12.036 0 0 0 0-8.347H.747a12.035 12.035 0 0 0 0 8.347L12 17.22l11.253-1.05Z"/><path fill="#D80027" d="M12 24c5.16 0 9.56-3.253 11.253-7.828H.747C2.442 20.747 6.84 24 12 24Z"/></g><defs><clipPath id="a"><path fill="#fff" d="M0 0h24v24H0z"/></clipPath></defs></svg>