<svg xmlns="http://www.w3.org/2000/svg" width="24" height="16" fill="none"><path fill="#000" d="m23.997 14.728-.006-.158-.006-.158-.001-.04v-.02l-.001-.004V14.3l-.001-.008-.005-.066-.021-.264-.005-.067-.008-.087-.016-.173-.017-.171-.009-.086-.01-.079c-.03-.208-.055-.412-.092-.61l-.05-.289-.058-.275c-.036-.18-.08-.347-.118-.502l-.028-.113-.03-.108-.056-.199-.05-.174-.047-.146-.053-.163a.125.125 0 0 0-.152-.082l-4.058 1.157a.124.124 0 0 0-.088.142l.015.08.019.102c.007.037.012.077.018.12l.021.136.011.073.01.078c.01.105.027.219.035.34l.015.186.01.195c.008.132.007.269.01.407v.051l-.002.046-.003.091-.003.092v.045l-.004.066-.01.265-.004.066v.01-.04.003l-.002.013-.002.027-.01.103-.009.103a23.59 23.59 0 0 1-.012.1c-.009.068-.014.134-.024.199l-.028.19-.032.181c-.009.059-.021.116-.032.17-.012.055-.02.108-.033.159l-.049.211-.014.054-.009.03h4.963a.124.124 0 0 0 .124-.118v-.001l.013-.285.006-.296c.003-.1 0-.203 0-.306l-.002-.156Zm-1.29-5.209a.125.125 0 0 0 .066-.169l-.048-.1a55.72 55.72 0 0 1-.056-.12l-.086-.174-.099-.198c-.017-.036-.035-.066-.053-.1l-.055-.102c-.038-.07-.076-.142-.118-.216l-.133-.227-.069-.119-.074-.119-.155-.245c-.11-.163-.22-.333-.343-.5l-.091-.125-.046-.063-.048-.062-.191-.248c-.065-.082-.132-.162-.198-.242l-.1-.12-.102-.116-.101-.115a3.366 3.366 0 0 0-.102-.112L20.3 5.71c-.067-.071-.136-.138-.202-.205-.067-.066-.131-.131-.197-.192l-.19-.177c-.061-.058-.124-.11-.182-.162l-.168-.147-.155-.128-.137-.112c-.043-.035-.083-.065-.119-.093l-.13-.1a.124.124 0 0 0-.172.02L16.47 7.05a.124.124 0 0 0 .008.167l.063.062c.023.023.049.047.075.075l.086.092.099.103.104.118c.036.041.076.082.113.128l.117.14c.041.048.08.1.12.152.04.052.084.104.124.16l.123.168.06.086.06.089.061.089.059.091.116.184.11.187.028.047.025.047.052.094c.07.124.13.251.192.37l.085.181.04.088.037.086.071.166.062.156.028.074c.01.023.02.049.026.068l.04.116.036.102.04.118.035.106a.124.124 0 0 0 .164.076l3.776-1.517ZM11.616 4.81l.108.015.128.023.146.025c.044.007.09.018.138.028l1.374-2.812-.202-.031c-.045-.007-.09-.015-.134-.02l-.132-.016-.252-.03-.237-.02c-.076-.006-.148-.014-.217-.017l-.196-.01-.173-.008-.146-.002-.157-.002a.124.124 0 0 0-.126.118l-.125 2.617a.124.124 0 0 0 .107.13l.095.012Zm3.693 1.441.105.077.092.066c.013.008.033.024.05.036l.049.037.089.066a.125.125 0 0 0 .178-.031l1.795-2.734a.124.124 0 0 0-.042-.176l-.097-.055-.053-.03-.063-.037-.166-.09c-.058-.033-.121-.067-.188-.103l-.198-.1c-.07-.034-.14-.071-.216-.106l-.235-.107c-.08-.038-.164-.072-.25-.108-.085-.035-.172-.074-.262-.107l-.07-.027-.773 3.36c.043.027.083.056.123.081l.132.088ZM9.207 4.797l.102-.014.101-.01.193-.02.18-.012.085-.006c.027-.002.055-.004.078-.004l.139-.004.121-.004h.127l.111-.001a.124.124 0 0 0 .124-.133l-.162-2.465a.125.125 0 0 0-.14-.115l-.11.014-.128.016-.18.026-.202.031-.106.019-.108.02-.23.045-.243.055-.127.03-.129.033-.265.07-.272.083-.138.042-.138.048-.14.047a3.09 3.09 0 0 0-.138.05l-.277.106c-.092.036-.183.076-.273.113l-.136.058-.132.061-.132.061c-.043.02-.087.04-.129.062l-.25.127c-.083.04-.161.086-.239.128-.078.043-.154.084-.226.128l-.21.125c-.069.04-.132.082-.194.121l-.177.114-.156.107-.137.094-.114.083-.119.088a.124.124 0 0 0-.028.17l1.023 1.505a.124.124 0 0 0 .164.038l.092-.052.1-.056.121-.063.137-.071.155-.074c.054-.025.108-.054.168-.08l.181-.08c.062-.028.127-.052.193-.079.067-.026.133-.055.203-.08l.212-.076c.035-.013.072-.025.108-.036l.11-.036.11-.035.113-.033c.075-.02.15-.044.226-.063l.227-.056c.038-.01.076-.018.114-.026l.113-.023.112-.024c.037-.008.074-.013.111-.02l.219-.038.212-.03Zm-6.98 1.945-.08.115-.081.115c-.028.038-.053.078-.08.118l-.155.238-.149.242-.037.06-.035.062-.07.121c-.094.16-.176.325-.26.48l-.114.235-.055.113-.05.112-.097.215-.084.203c-.026.066-.053.128-.076.188l-.063.17-.056.15-.044.128-.044.131a.124.124 0 0 0 .073.156l.953.365a.125.125 0 0 0 .157-.062l.05-.104.052-.109.066-.126.074-.144c.026-.05.057-.102.087-.156l.095-.17.107-.178.056-.092.06-.094.125-.191c.09-.127.177-.26.276-.39l.073-.097.036-.05.038-.048.154-.193.158-.188c.027-.03.052-.062.08-.092l.081-.09.081-.09a2.2 2.2 0 0 1 .081-.086l.162-.168c.053-.055.109-.106.16-.158.054-.051.105-.102.157-.148l.15-.137c.049-.044.098-.084.144-.124l.133-.113.117-.093.103-.081.05-.04.05-.036.088-.067a.124.124 0 0 0 .02-.18L3.859 5.092a.124.124 0 0 0-.18-.01l-.081.078-.044.042-.05.05-.12.12-.137.139-.14.152c-.048.053-.1.107-.15.166l-.158.182c-.054.061-.107.128-.16.195-.055.067-.111.135-.165.206a445.443 445.443 0 0 0-.246.33Zm-1.97 4.456-.023.109-.025.125c-.01.047-.018.102-.028.159l-.031.181-.017.098-.013.101c-.018.138-.042.286-.055.444l-.024.243c-.007.083-.011.168-.017.254-.014.172-.016.35-.022.531L0 13.511v.068l.002.274v.069l.003.069.011.273.003.069v.021l.002.017.002.033.01.13.01.13.013.135.013.132.006.065.008.064.032.25.037.237c.01.078.025.152.038.224l.003.018a.124.124 0 0 0 .123.102h.336a.125.125 0 0 0 .124-.132 8.835 8.835 0 0 0-.004-.058c-.004-.07-.009-.142-.01-.216l-.008-.227-.002-.298.002-.06.002-.122.003-.123.006-.13.006-.131.002-.033V14.342v.003l.001-.004v-.008l.006-.063.02-.256.005-.064.008-.063.014-.128.015-.126.007-.063.01-.062c.025-.166.047-.33.079-.486l.043-.23.049-.219c.03-.143.068-.275.099-.398l.023-.09.025-.083.045-.153.041-.135.04-.122.036-.106a.125.125 0 0 0-.087-.16l-.841-.224a.124.124 0 0 0-.154.096Zm9.528 4.362a1.937 1.937 0 0 0 2.739-1.306l1.96-8.506.746-3.24.462-2.006c.054-.234-.132-.393-.318-.393a.305.305 0 0 0-.28.18l-.941 1.926-1.388 2.839-3.87 7.915a1.938 1.938 0 0 0 .89 2.591Zm.921-2.739a.95.95 0 1 1 0 1.9.95.95 0 0 1 0-1.9Z"/></svg>