<svg width="190" height="190" viewBox="0 0 190 190" fill="none" xmlns="http://www.w3.org/2000/svg">
<circle cx="95" cy="95" r="95" fill="black"/>
<g clip-path="url(#clip0_2015_8227)">
<path fill-rule="evenodd" clip-rule="evenodd" d="M84.0041 109.941C84.0041 108.49 82.8601 107.514 81.447 107.763L64.557 110.747C63.1439 110.997 62 112.378 62 113.829V145.835C62 147.289 63.1439 148.266 64.557 148.016L81.447 145.032C82.8601 144.783 84.0041 143.402 84.0041 141.948V109.941Z" fill="white"/>
<path fill-rule="evenodd" clip-rule="evenodd" d="M128 38.272C128 36.8215 126.856 35.8447 125.443 36.0943L108.553 39.0783C107.14 39.328 105.996 40.7091 105.996 42.1595V74.1665C105.996 75.6203 107.14 76.5971 108.553 76.3475L125.443 73.3635C126.856 73.1138 128 71.7327 128 70.2789V38.272Z" fill="#FF5D51"/>
<path fill-rule="evenodd" clip-rule="evenodd" d="M86.7476 45.7426C86.0952 44.3028 84.3417 43.3542 82.8276 43.6217L64.7312 46.8189C63.2172 47.0864 62.5194 48.4681 63.1718 49.9079L103.244 138.351C103.896 139.791 105.653 140.748 107.167 140.48L125.264 137.283C126.778 137.016 127.472 135.626 126.819 134.186L86.7476 45.7426Z" fill="white"/>
</g>
<defs>
<clipPath id="clip0_2015_8227">
<rect width="66" height="112" fill="white" transform="translate(62 36.0554)"/>
</clipPath>
</defs>
</svg>
