<svg width="557" height="586" viewBox="0 0 557 586" fill="none" xmlns="http://www.w3.org/2000/svg">
<g clip-path="url(#clip0_62_1081)">
<line opacity="0.2" x1="7" y1="271.055" x2="550" y2="271.055" stroke="white" stroke-width="2" stroke-dasharray="10 10"/>
<circle cx="278" cy="279.055" r="95" fill="black"/>
<path opacity="0.2" fill-rule="evenodd" clip-rule="evenodd" d="M278 443.055C372.441 443.055 449 366.496 449 272.055C449 177.615 372.441 101.055 278 101.055C183.559 101.055 107 177.615 107 272.055C107 366.496 183.559 443.055 278 443.055ZM278 445.055C373.545 445.055 451 367.601 451 272.055C451 176.51 373.545 99.0554 278 99.0554C182.455 99.0554 105 176.51 105 272.055C105 367.601 182.455 445.055 278 445.055Z" fill="white"/>
<path opacity="0.2" fill-rule="evenodd" clip-rule="evenodd" d="M278 493.055C400.055 493.055 499 394.11 499 272.055C499 150 400.055 51.0554 278 51.0554C155.945 51.0554 57 150 57 272.055C57 394.11 155.945 493.055 278 493.055ZM278 495.055C401.159 495.055 501 395.215 501 272.055C501 148.896 401.159 49.0554 278 49.0554C154.84 49.0554 55 148.896 55 272.055C55 395.215 154.84 495.055 278 495.055Z" fill="white"/>
<path opacity="0.2" fill-rule="evenodd" clip-rule="evenodd" d="M278 542.055C427.117 542.055 548 421.172 548 272.055C548 122.938 427.117 2.05536 278 2.05536C128.883 2.05536 8 122.938 8 272.055C8 421.172 128.883 542.055 278 542.055ZM278 544.055C428.221 544.055 550 422.277 550 272.055C550 121.834 428.221 0.0553589 278 0.0553589C127.779 0.0553589 6 121.834 6 272.055C6 422.277 127.779 544.055 278 544.055Z" fill="white"/>
<g clip-path="url(#clip1_62_1081)">
<path fill-rule="evenodd" clip-rule="evenodd" d="M267.004 293.941C267.004 292.49 265.86 291.514 264.447 291.763L247.557 294.747C246.144 294.997 245 296.378 245 297.829V329.835C245 331.289 246.144 332.266 247.557 332.016L264.447 329.032C265.86 328.783 267.004 327.402 267.004 325.948V293.941Z" fill="white"/>
<path fill-rule="evenodd" clip-rule="evenodd" d="M311 222.272C311 220.822 309.856 219.845 308.443 220.094L291.553 223.078C290.14 223.328 288.996 224.709 288.996 226.16V258.166C288.996 259.62 290.14 260.597 291.553 260.347L308.443 257.363C309.856 257.114 311 255.733 311 254.279V222.272Z" fill="#FF5D51"/>
<path fill-rule="evenodd" clip-rule="evenodd" d="M269.748 229.743C269.095 228.303 267.342 227.354 265.828 227.622L247.731 230.819C246.217 231.086 245.52 232.468 246.172 233.908L286.244 322.351C286.896 323.791 288.654 324.748 290.168 324.48L308.264 321.283C309.778 321.016 310.472 319.626 309.82 318.186L269.748 229.743Z" fill="white"/>
</g>
<path fill-rule="evenodd" clip-rule="evenodd" d="M510.586 134.202C508.684 135.326 506.234 134.693 505.082 132.809C487.825 104.589 465.438 79.8485 439.077 59.8674C437.317 58.533 436.931 56.0319 438.239 54.2514C439.547 52.4709 442.052 52.0853 443.813 53.419C471.044 74.0403 494.163 99.5892 511.97 128.738C513.121 130.623 512.488 133.078 510.586 134.202Z" fill="#4DC985"/>
<path fill-rule="evenodd" clip-rule="evenodd" d="M225.119 538.806C225.554 536.64 227.662 535.24 229.834 535.641C276.576 544.281 324.784 540.189 369.401 523.794C371.474 523.032 373.788 524.057 374.581 526.119C375.374 528.181 374.347 530.499 372.273 531.261C326.24 548.2 276.491 552.423 228.261 543.486C226.089 543.084 224.685 540.973 225.119 538.806Z" fill="#F2C94C"/>
<circle cx="438" cy="210.055" r="7" fill="#4DC985"/>
<circle cx="438" cy="342.055" r="7" fill="#F2C94C"/>
<circle cx="550" cy="272.055" r="7" fill="#4DC7C9"/>
<circle cx="514" cy="404.055" r="7" fill="#42E8E0"/>
<circle cx="7" cy="272.055" r="7" fill="#F2C94C"/>
<circle cx="112" cy="318.055" r="7" fill="#42E8E0"/>
<circle cx="77" cy="181.055" r="7" fill="#4DC7C9"/>
<circle cx="67" cy="106.055" r="7" fill="#4DC985"/>
<circle cx="373" cy="18.0554" r="7" fill="#42E8E0"/>
<circle cx="155" cy="515.055" r="7" fill="#4DC985"/>
<path fill-rule="evenodd" clip-rule="evenodd" d="M278 397.055C342.065 397.055 394 345.12 394 281.055C394 216.99 342.065 165.055 278 165.055C213.935 165.055 162 216.99 162 281.055C162 345.12 213.935 397.055 278 397.055ZM278 407.055C347.588 407.055 404 350.643 404 281.055C404 211.468 347.588 155.055 278 155.055C208.412 155.055 152 211.468 152 281.055C152 350.643 208.412 407.055 278 407.055Z" fill="#4D1470"/>
<path d="M351.038 379.65L363.79 369.986L375.289 385.159L362.537 394.822L351.038 379.65Z" fill="#4D1470"/>
<path d="M522.036 585.055L497.922 585.055L361.79 405.426C359.121 401.905 359.812 396.887 363.334 394.218L374.492 385.763C378.013 383.094 383.031 383.785 385.699 387.306L530.629 578.543L522.036 585.055Z" fill="#4D1470"/>
<path fill-rule="evenodd" clip-rule="evenodd" d="M278 398.055C305.597 398.055 331.122 389.183 351.878 374.135L365.725 392.406L378.476 382.742L364.223 363.934C388.707 340.949 404 308.288 404 272.055C404 202.468 347.588 146.055 278 146.055C208.412 146.055 152 202.468 152 272.055C152 341.643 208.412 398.055 278 398.055ZM278 388.055C342.065 388.055 394 336.12 394 272.055C394 207.99 342.065 156.055 278 156.055C213.935 156.055 162 207.99 162 272.055C162 336.12 213.935 388.055 278 388.055Z" fill="#F2F2F2"/>
<path d="M364.978 403.01L502.941 585.055L540.583 585.055L388.887 384.89C386.219 381.369 381.201 380.678 377.68 383.346L366.522 391.802C363 394.471 362.309 399.489 364.978 403.01Z" fill="#F2F2F2"/>
<path fill-rule="evenodd" clip-rule="evenodd" d="M408.367 158.33C406.702 159.782 404.179 159.606 402.687 157.976C377.479 130.422 343.847 111.993 307.058 105.572C304.882 105.192 303.376 103.16 303.704 100.976C304.032 98.7909 306.07 97.2814 308.247 97.6589C346.913 104.364 382.259 123.734 408.718 152.716C410.207 154.347 410.032 156.878 408.367 158.33Z" fill="#42E8E0"/>
<path fill-rule="evenodd" clip-rule="evenodd" d="M132.196 178.941C130.334 177.752 129.785 175.276 131.016 173.441C145.727 151.515 165.157 133.157 187.883 119.714C189.784 118.589 192.225 119.278 193.307 121.204C194.388 123.131 193.7 125.565 191.8 126.692C170.221 139.488 151.76 156.929 137.76 177.748C136.527 179.581 134.058 180.13 132.196 178.941Z" fill="#F2C94C"/>
<path fill-rule="evenodd" clip-rule="evenodd" d="M168.586 406.061C169.983 404.35 172.5 404.099 174.244 405.456C190.121 417.804 208.075 427.22 227.261 433.259C229.368 433.922 230.593 436.135 229.98 438.257C229.367 440.38 227.148 441.608 225.04 440.947C204.817 434.605 185.898 424.684 169.183 411.654C167.44 410.296 167.189 407.772 168.586 406.061Z" fill="#4DC985"/>
<path fill-rule="evenodd" clip-rule="evenodd" d="M325.033 55.0487C324.569 57.2086 322.442 58.5796 320.274 58.1551C273.07 48.9118 224.131 55.3956 180.963 76.6123C178.98 77.5868 176.569 76.8169 175.559 74.8523C174.549 72.8877 175.321 70.4724 177.303 69.4968C222.117 47.436 272.941 40.7023 321.954 50.3322C324.122 50.7581 325.497 52.8888 325.033 55.0487Z" fill="#4DC985"/>
<path fill-rule="evenodd" clip-rule="evenodd" d="M498.574 299.294C496.378 299.045 494.805 297.064 495.014 294.864C498.949 253.451 491.06 211.768 472.264 174.656C471.266 172.685 472.007 170.266 473.96 169.232C475.912 168.199 478.336 168.942 479.336 170.912C498.884 209.449 507.079 252.751 502.964 295.766C502.754 297.965 500.769 299.543 498.574 299.294Z" fill="#F2C94C"/>
<path fill-rule="evenodd" clip-rule="evenodd" d="M83.7949 379.923C85.72 378.84 88.1559 379.524 89.2743 381.429C110.334 417.305 141.136 446.476 178.103 465.554C180.066 466.567 180.882 468.962 179.905 470.944C178.927 472.925 176.527 473.742 174.563 472.73C136.151 452.937 104.153 422.633 82.3016 385.354C81.1845 383.448 81.8697 381.007 83.7949 379.923Z" fill="#42E8E0"/>
<path fill-rule="evenodd" clip-rule="evenodd" d="M302.292 491.734C302.052 489.538 303.639 487.567 305.831 487.288C331.569 484.006 356.524 476.196 379.542 464.22C381.502 463.2 383.929 463.915 384.984 465.856C386.039 467.797 385.323 470.229 383.364 471.25C359.43 483.721 333.472 491.845 306.698 495.242C304.507 495.52 302.532 493.93 302.292 491.734Z" fill="#42E8E0"/>
</g>
<defs>
<clipPath id="clip0_62_1081">
<rect width="557" height="586" fill="white"/>
</clipPath>
<clipPath id="clip1_62_1081">
<rect width="66" height="112" fill="white" transform="translate(245 220.055)"/>
</clipPath>
</defs>
</svg>
