<svg width="190" height="191" viewBox="0 0 190 191" fill="none" xmlns="http://www.w3.org/2000/svg">
<circle cx="95" cy="95.0554" r="95" fill="black"/>
<g clip-path="url(#clip0_2018_8229)">
<path d="M164.166 65.7885C170.189 63.399 181.14 62.264 182 62.3835C181.374 62.6224 173.943 65.4898 166.864 69.9104C158.729 74.5998 151.611 78.1243 141.755 80.3644C133.346 82.276 120.909 83.4708 113.126 83.65C121.769 82.8435 134.168 77.7658 141.716 74.7192C149.225 71.7025 158.142 68.178 164.166 65.7885Z" fill="black"/>
<path d="M145.433 53.0347C155.094 52.1685 163.424 48.3752 171.911 45C167.061 51.7503 159.709 57.4552 152.356 62.055L152.317 62.0251C130.102 68.1183 86.5325 78.8412 74.4473 84.2175C56.8084 92.073 49.2209 102.706 48.1258 104.917L48.1649 104.946C43.6281 108.59 41.2423 111.547 38.5046 114.594C38.1526 112.712 37.7224 111.129 37.6441 109.516C37.3704 105.126 36.9793 100.735 37.0966 96.3442C37.253 91.2367 38.7392 86.3083 41.0468 81.4995C45.4272 72.4493 56.8475 66.595 68.7371 63.3095C78.5148 60.5616 90.0525 57.963 145.433 53.0347Z" fill="#C53A17"/>
<path d="M152.318 62.025L152.357 62.0549C144.143 67.1923 135.891 70.9557 130.924 73.2258C119.191 78.6021 85.751 89.5938 76.7556 92.4014C69.7938 94.5818 60.7984 96.2545 51.9202 102.139C50.5122 103.124 49.2607 104.05 48.1656 104.916L48.1265 104.887C49.2607 102.676 56.8482 92.043 74.448 84.1876C86.5724 78.8112 130.103 68.1182 152.318 62.025Z" fill="white"/>
<path d="M111.211 88.3994C111.72 89.0864 117.352 96.5237 114.614 107.217C111.133 117.73 101.473 131.769 84.9289 135.711C78.1236 137.324 73.2739 137.175 66.3904 135.622C57.434 133.621 50.2376 129.618 44.0581 123.913C60.6411 128.662 77.8107 127.975 90.8737 120.717C103.898 113.459 112.58 101.153 111.211 88.3994Z" fill="#C53A17"/>
<path d="M90.4065 97.4196C94.2785 110.472 81.4893 121.972 59.1181 115.998C58.1794 115.699 58.1794 115.46 58.4923 114.833C62.4425 107.037 72.4939 99.3312 88.6465 97.0911C89.507 96.9118 90.211 96.8222 90.4065 97.4196Z" fill="white"/>
<path d="M37.9182 123.584C39.2089 127.318 41.712 132.844 46.3271 136.01C38.4267 141.237 38.6613 151.273 38.5831 152.169C30.8783 142.163 31.6214 129.2 37.9182 123.584Z" fill="#C53A17"/>
</g>
<defs>
<clipPath id="clip0_2018_8229">
<rect width="147" height="112" fill="white" transform="translate(26 40)"/>
</clipPath>
</defs>
</svg>
