<svg width="24" height="24" viewBox="0 0 24 24" fill="none" xmlns="http://www.w3.org/2000/svg">
<path d="M23.6398 14.9032C22.0371 21.3318 15.5259 25.2442 9.09655 23.6411C2.66979 22.0383 -1.24261 15.5268 0.360881 9.09852C1.96288 2.66912 8.47403 -1.24365 14.9016 0.359094C21.3306 1.96187 25.2426 8.47413 23.6398 14.9032Z" fill="#F7931A"/>
<path d="M8.0529 14.0212C7.98766 14.1832 7.82229 14.4262 7.44952 14.3339C7.46267 14.3531 6.49254 14.0951 6.49254 14.0951L5.83893 15.6022L7.55228 16.0293C7.87103 16.1092 8.18343 16.1928 8.49092 16.2716L7.94602 18.4593L9.26116 18.7875L9.80078 16.623C10.1495 16.7175 10.4993 16.8082 10.85 16.8952L10.3123 19.0496L11.6289 19.3777L12.1738 17.1941C14.4189 17.6189 16.1072 17.4476 16.8178 15.4169C17.3904 13.782 16.7893 12.8388 15.6081 12.2238C16.4683 12.0254 17.1163 11.4595 17.2892 10.2907C17.528 8.69391 16.3123 7.83553 14.6499 7.2629L15.1892 5.09987L13.8725 4.77174L13.3475 6.87775C13.0014 6.7915 12.6459 6.71012 12.2927 6.62949L12.8214 4.50958L11.5055 4.18146L10.9659 6.34371C10.6794 6.27847 10.3981 6.21393 10.1251 6.14608L10.1266 6.13932L8.31085 5.68594L7.96058 7.0922C7.96058 7.0922 8.93747 7.31608 8.91684 7.32995C9.45011 7.46308 9.54647 7.81593 9.53037 8.09572L8.0529 14.0212ZM14.2809 14.5091C13.874 16.144 11.1212 15.2602 10.2287 15.0385L10.9517 12.1402C11.8441 12.3629 14.7061 12.8039 14.2809 14.5091ZM14.6882 10.2671C14.3169 11.7543 12.0256 10.9987 11.2824 10.8134L11.9379 8.18466C12.6812 8.36991 15.0748 8.71566 14.6882 10.2671Z" fill="white"/>
</svg>
