<svg width="18" height="20" viewBox="0 0 18 20" fill="none" xmlns="http://www.w3.org/2000/svg">
<path fill-rule="evenodd" clip-rule="evenodd" d="M9.70999 0.30001L17.42 8.18001C17.7928 8.56659 18.0008 9.08294 18 9.62001V18C18.0008 18.5119 17.8052 19.0046 17.4536 19.3767C17.102 19.7488 16.6211 19.9719 16.11 20H1.88999C1.37885 19.9719 0.897969 19.7488 0.546368 19.3767C0.194766 19.0046 -0.00078153 18.5119 -6.70605e-06 18V9.62001C-0.00285185 9.35512 0.0469548 9.0923 0.146521 8.84682C0.246088 8.60133 0.39343 8.37808 0.579993 8.19001L8.28999 0.30001C8.38296 0.206281 8.49356 0.131887 8.61542 0.0811183C8.73728 0.0303497 8.86798 0.00421143 8.99999 0.00421143C9.132 0.00421143 9.26271 0.0303497 9.38457 0.0811183C9.50643 0.131887 9.61703 0.206281 9.70999 0.30001ZM1.99999 18H16V9.62001L8.99999 2.43001L1.99999 9.58001V18Z" fill="black"/>
</svg>
