<svg width="24" height="24" viewBox="0 0 24 24" fill="none" xmlns="http://www.w3.org/2000/svg">
<g clip-path="url(#clip0_6_4461)">
<path d="M12 24C18.6274 24 24 18.6274 24 12C24 5.37258 18.6274 0 12 0C5.37258 0 0 5.37258 0 12C0 18.6274 5.37258 24 12 24Z" fill="#F0F0F0"/>
<path d="M0 12C0 5.37263 5.37262 0 12 0C18.6274 0 24 5.37263 24 12" fill="#D80027"/>
<path d="M7.30436 6.26083C7.30436 4.51248 8.53309 3.05195 10.1739 2.69359C9.91683 2.63729 9.65444 2.60883 9.39128 2.6087C7.3742 2.6087 5.73911 4.2438 5.73911 6.26088C5.73911 8.27795 7.3742 9.91305 9.39128 9.91305C9.66001 9.91305 9.92167 9.88319 10.1739 9.82811C8.53309 9.46975 7.30436 8.00922 7.30436 6.26083ZM12 2.86956L12.259 3.66667H13.0972L12.4191 4.15938L12.6781 4.95648L12 4.46388L11.3219 4.95648L11.5809 4.15938L10.9029 3.66667H11.741L12 2.86956Z" fill="#F0F0F0"/>
<path d="M9.96682 4.43475L10.2258 5.23191H11.064L10.3859 5.72457L10.6449 6.52168L9.96682 6.02907L9.28863 6.52168L9.54771 5.72457L8.86957 5.23191H9.70774L9.96682 4.43475ZM14.0333 4.43475L14.2923 5.23191H15.1305L14.4523 5.72457L14.7114 6.52168L14.0333 6.02907L13.3552 6.52168L13.6142 5.72457L12.9361 5.23191H13.7742L14.0333 4.43475ZM13.2507 6.78258L13.5097 7.57974H14.3478L13.6698 8.07239L13.9288 8.8695L13.2507 8.37689L12.5726 8.8695L12.8316 8.07239L12.1535 7.57974H12.9916L13.2507 6.78258ZM10.7494 6.78258L11.0084 7.57974H11.8466L11.1685 8.07239L11.4275 8.8695L10.7494 8.37689L10.0713 8.8695L10.3303 8.07239L9.65219 7.57974H10.4904L10.7494 6.78258Z" fill="#F0F0F0"/>
</g>
<defs>
<clipPath id="clip0_6_4461">
<rect width="24" height="24" fill="white"/>
</clipPath>
</defs>
</svg>
